<?xml version="1.0" standalone="no"?>
<!DOCTYPE svg PUBLIC "-//W3C//DTD SVG 20010904//EN"
 "http://www.w3.org/TR/2001/REC-SVG-20010904/DTD/svg10.dtd">
<svg version="1.0" xmlns="http://www.w3.org/2000/svg"
 width="1448.000000pt" height="1448.000000pt" viewBox="0 0 1448.000000 1448.000000"
 preserveAspectRatio="xMidYMid meet">
<metadata>
Created by potrace 1.11, written by Peter Selinger 2001-2013
</metadata>
<g transform="translate(0.000000,1448.000000) scale(0.100000,-0.100000)"
fill="#000000" stroke="none">
<path d="M0 7243 l0 -7238 7240 0 7240 0 0 7238 0 7237 -7240 0 -7240 0 0
-7237z m3580 3540 c120 -33 195 -85 236 -165 l24 -47 0 -1350 c0 -1242 1
-1351 16 -1359 9 -5 24 -7 33 -5 9 2 410 634 891 1404 626 1004 884 1408 909
1428 45 36 120 74 191 97 49 16 106 18 530 22 303 2 508 0 567 -7 106 -13 189
-40 228 -77 24 -22 27 -31 23 -72 -4 -41 -32 -88 -213 -362 -397 -600 -1777
-2705 -1782 -2718 -3 -7 7 -31 22 -53 14 -23 25 -42 23 -44 -2 -2 -59 -22
-128 -45 -315 -105 -622 -231 -938 -385 l-213 -104 -36 57 c-19 31 -42 67 -49
80 -18 27 -50 29 -64 3 -5 -11 -10 -62 -10 -114 l0 -95 -235 -121 c-378 -194
-755 -409 -1115 -636 -80 -50 -151 -95 -158 -99 -10 -6 -12 421 -10 2271 l3
2278 23 50 c29 63 64 100 122 130 113 58 164 62 645 57 325 -3 421 -7 465 -19z
m7276 -5 c445 -104 898 -359 1145 -643 132 -152 234 -337 308 -560 22 -66 43
-145 47 -176 l6 -56 -63 -7 c-72 -8 -452 -84 -749 -149 l-195 -43 -26 80 c-62
194 -165 341 -320 457 -134 99 -308 167 -479 187 -52 6 -381 7 -842 4 l-758
-5 -2 -630 -3 -630 -587 -157 -588 -157 -1 116 c0 64 -4 593 -8 1176 -9 1145
-11 1096 42 1153 55 59 24 57 742 62 363 3 1011 5 1440 5 l780 -1 111 -26z
m1520 -1625 c18 -118 -15 -428 -72 -686 -95 -428 -243 -676 -511 -855 -29 -19
-53 -38 -53 -41 0 -3 43 -28 96 -55 186 -94 362 -223 486 -354 172 -183 295
-440 361 -757 73 -349 61 -622 -48 -1070 -51 -211 -79 -294 -148 -430 -129
-259 -331 -485 -586 -656 -174 -117 -383 -214 -561 -259 -195 -50 -187 -50
-1860 -50 -1062 0 -1577 3 -1603 11 -43 12 -101 59 -123 100 -12 24 -14 265
-14 1743 l0 1715 28 15 c45 23 1126 508 1145 513 12 4 17 0 17 -16 l0 -21 838
0 c815 0 839 1 912 21 144 40 301 139 421 266 147 156 233 336 261 544 l12 89
135 44 c212 69 803 232 853 236 4 0 10 -21 14 -47z m-6373 -2770 c208 -319
1109 -1686 1279 -1940 103 -155 193 -294 198 -308 25 -67 -1 -139 -62 -168
-29 -14 -118 -17 -708 -23 -675 -6 -675 -6 -731 15 -31 12 -80 38 -108 59 -46
34 -96 109 -586 890 -295 470 -535 858 -533 864 4 12 1139 736 1156 737 7 1
50 -56 95 -126z m-2156 -1560 c-3 -175 -2 -392 3 -482 8 -139 7 -169 -7 -202
-19 -49 -101 -125 -179 -166 l-59 -31 -530 2 c-570 3 -547 1 -615 55 -17 13
-22 23 -15 30 17 17 1400 1111 1404 1111 2 0 1 -143 -2 -317z"/>
<path d="M8937 6924 c-4 -4 -7 -466 -7 -1026 l0 -1018 892 0 c988 0 947 -2
1097 66 370 169 621 561 621 969 0 477 -291 855 -758 983 l-97 27 -871 3
c-478 1 -873 -1 -877 -4z"/>
</g>
</svg>
